<?xml version="1.0" encoding="UTF-8" standalone="no"?>
<svg
   xmlns:dc="http://purl.org/dc/elements/1.1/"
   xmlns:cc="http://creativecommons.org/ns#"
   xmlns:rdf="http://www.w3.org/1999/02/22-rdf-syntax-ns#"
   xmlns:svg="http://www.w3.org/2000/svg"
   xmlns="http://www.w3.org/2000/svg"
   xmlns:sodipodi="http://sodipodi.sourceforge.net/DTD/sodipodi-0.dtd"
   xmlns:inkscape="http://www.inkscape.org/namespaces/inkscape"
   width="4096"
   height="4096"
   viewBox="0 0 4096 4096"
   version="1.1"
   id="svg70"
   sodipodi:docname="google-podcasts-logo.svg"
   inkscape:version="0.92.2 (5c3e80d, 2017-08-06)"
   inkscape:export-filename="G:\Users\suitedoalex\sites\google-podcasts-logo-0.png"
   inkscape:export-xdpi="96"
   inkscape:export-ydpi="96">
  <metadata
     id="metadata76">
    <rdf:RDF>
      <cc:Work
         rdf:about="">
        <dc:format>image/svg+xml</dc:format>
        <dc:type
           rdf:resource="http://purl.org/dc/dcmitype/StillImage" />
        <dc:title>discover-google</dc:title>
      </cc:Work>
    </rdf:RDF>
  </metadata>
  <defs
     id="defs74" />
  <sodipodi:namedview
     pagecolor="#ffffff"
     bordercolor="#666666"
     borderopacity="1"
     objecttolerance="10"
     gridtolerance="10"
     guidetolerance="10"
     inkscape:pageopacity="0"
     inkscape:pageshadow="2"
     inkscape:window-width="1600"
     inkscape:window-height="837"
     id="namedview72"
     showgrid="false"
     inkscape:zoom="0.038487783"
     inkscape:cx="469.43999"
     inkscape:cy="1611.0232"
     inkscape:window-x="-8"
     inkscape:window-y="-8"
     inkscape:window-maximized="1"
     inkscape:current-layer="Group-3" />
  <!-- Generator: Sketch 52.5 (67469) - http://www.bohemiancoding.com/sketch -->
  <title
     id="title2">discover-google</title>
  <desc
     id="desc4">Created with Sketch.</desc>
  <g
     id="Group-7-2"
     transform="matrix(0.96197551,0,0,0.96197551,-94.775127,4058.5894)">
    <g
       id="Podcast_icon_final-3"
       transform="matrix(17.436483,0,0,17.436483,429.20315,-2343.9177)"
       inkscape:export-filename="G:\Users\suitedoalex\sites\google-podcasts-logo-4.png"
       inkscape:export-xdpi="11.098957"
       inkscape:export-ydpi="11.098957">
      <g
         id="_logo_Podcasts_192px-8">
        <polygon
           style="fill:#fab908"
           id="Shape-8"
           points="12.742925,19.852941 16.383761,19.852941 16.383761,15.440625 16.383761,13.677022 16.383761,9.2647059 12.742925,9.2647059 12.742925,13.677022 12.742925,15.440625 " />
        <ellipse
           style="fill:#0066d9"
           id="Oval-0"
           cx="1.8204179"
           cy="13.566176"
           rx="1.8204179"
           ry="1.8198529" />
        <ellipse
           style="fill:#0066d9"
           id="ellipse9-9"
           cx="1.8204179"
           cy="15.551471"
           rx="1.8204179"
           ry="1.8198529" />
        <rect
           style="fill:#0066d9"
           id="Rectangle-path-8"
           x="0"
           y="13.566176"
           width="3.6408358"
           height="1.9852941" />
        <ellipse
           style="fill:#4285f4"
           id="ellipse12-0"
           cx="27.306269"
           cy="15.551471"
           rx="1.8204179"
           ry="1.8198529" />
        <ellipse
           style="fill:#4285f4"
           id="ellipse14-0"
           cx="27.306269"
           cy="13.566176"
           rx="1.8204179"
           ry="1.8198529" />
        <rect
           style="fill:#4285f4"
           id="rect16-5"
           transform="rotate(180,27.306269,14.558824)"
           x="25.485851"
           y="13.566176"
           width="3.6408358"
           height="1.9852941" />
        <ellipse
           style="fill:#ea4335"
           id="ellipse18-2"
           cx="8.1091347"
           cy="19.522058"
           rx="1.8204179"
           ry="1.8198529" />
        <ellipse
           style="fill:#ea4335"
           id="ellipse20-8"
           cx="8.1091347"
           cy="21.507353"
           rx="1.8204179"
           ry="1.8198529" />
        <rect
           style="fill:#ea4335"
           id="rect22-6"
           x="6.2887163"
           y="19.522058"
           width="3.6408358"
           height="1.9852941" />
        <ellipse
           style="fill:#ea4335"
           id="ellipse24-4"
           cx="8.1091347"
           cy="7.6102943"
           rx="1.8204179"
           ry="1.8198529" />
        <ellipse
           style="fill:#ea4335"
           id="ellipse26-3"
           cx="8.1091347"
           cy="14.0625"
           rx="1.8204179"
           ry="1.8198529" />
        <rect
           style="fill:#ea4335"
           id="rect28-2"
           x="6.2887163"
           y="7.6102943"
           width="3.6408358"
           height="6.493566" />
        <ellipse
           style="fill:#34a853"
           id="ellipse30-7"
           cx="21.017551"
           cy="9.5955887"
           rx="1.8204179"
           ry="1.8198529" />
        <ellipse
           style="fill:#34a853"
           id="ellipse32-9"
           cx="21.017551"
           cy="7.6102943"
           rx="1.8204179"
           ry="1.8198529" />
        <rect
           style="fill:#34a853"
           id="rect34-0"
           transform="rotate(180,21.017552,8.602941)"
           x="19.197134"
           y="7.6102943"
           width="3.6408358"
           height="1.9852941" />
        <ellipse
           style="fill:#fab908"
           id="ellipse36-4"
           cx="14.563343"
           cy="3.8051472"
           rx="1.8204179"
           ry="1.8198529" />
        <ellipse
           style="fill:#fab908"
           id="ellipse38-1"
           cx="14.563343"
           cy="1.8198529"
           rx="1.8204179"
           ry="1.8198529" />
        <rect
           style="fill:#fab908"
           id="rect40-9"
           transform="rotate(180,14.563343,2.8125)"
           x="12.742926"
           y="1.8198529"
           width="3.6408358"
           height="1.9852941" />
        <ellipse
           style="fill:#fab908"
           id="ellipse42-1"
           cx="14.563343"
           cy="27.297794"
           rx="1.8204179"
           ry="1.8198529" />
        <ellipse
           style="fill:#fab908"
           id="ellipse44-5"
           cx="14.563343"
           cy="25.3125"
           rx="1.8204179"
           ry="1.8198529" />
        <rect
           style="fill:#fab908"
           id="rect46-3"
           transform="rotate(180,14.563343,26.305147)"
           x="12.742926"
           y="25.3125"
           width="3.6408358"
           height="1.9852941" />
        <ellipse
           style="fill:#34a853"
           id="ellipse48-2"
           cx="21.017551"
           cy="21.507353"
           rx="1.8204179"
           ry="1.8198529" />
        <ellipse
           style="fill:#34a853"
           id="ellipse50-8"
           cx="21.017551"
           cy="15.055147"
           rx="1.8204179"
           ry="1.8198529" />
        <rect
           style="fill:#34a853"
           id="rect52-3"
           transform="rotate(180,21.017552,18.28125)"
           x="19.197134"
           y="15.055147"
           width="3.6408358"
           height="6.4522057" />
        <ellipse
           style="fill:#fab908"
           id="ellipse54-7"
           cx="14.563343"
           cy="9.2647057"
           rx="1.8204179"
           ry="1.8198529" />
        <ellipse
           style="fill:#fab908"
           id="ellipse56-5"
           cx="14.563343"
           cy="19.852942"
           rx="1.8204179"
           ry="1.8198529" />
      </g>
    </g>
    <g
       id="Group-3"
       transform="matrix(1.3159242,0,0,1.3159242,37.320241,3.9838645)">
      <path
         style="fill:#6a6c6f;fill-opacity:1;fill-rule:nonzero;stroke-width:18.9526825"
         inkscape:connector-curvature="0"
         d="m 1849.7554,-1501.4563 h -29.5046 v -217.6233 h 78.2513 c 19.456,0 36.2928,6.1295 50.5107,18.3886 14.2179,12.2591 21.3266,27.7094 21.3266,46.3513 0,18.642 -7.1087,34.0922 -21.3266,46.3513 -14.2179,12.2591 -31.0547,18.3886 -50.5107,18.3886 h -48.7467 z m 0,-114.8904 h 49.3881 c 12.4005,0 22.3423,-3.9513 29.8254,-11.8539 7.483,-7.9025 11.2245,-16.6155 11.2245,-26.1391 0,-9.5236 -3.7415,-18.2365 -11.2245,-26.1391 -7.4831,-7.9025 -17.4249,-11.8537 -29.8254,-11.8537 h -49.3881 z m 145.0475,-16.1091 c 15.1801,-15.1972 34.529,-22.7957 58.0472,-22.7957 23.5183,0 42.8672,7.5479 58.0471,22.6438 15.18,15.0959 22.7699,33.9909 22.7699,56.6854 0,22.6945 -7.5899,41.5894 -22.7699,56.6853 -15.1799,15.096 -34.5288,22.6438 -58.0471,22.6438 -23.5182,0 -42.8671,-7.5478 -58.0472,-22.6438 -15.1799,-15.0959 -22.7698,-33.9908 -22.7698,-56.6853 0,-22.6945 7.5899,-41.5388 22.7698,-56.5335 z m 21.8079,95.7421 c 10.2625,9.7262 22.3422,14.5893 36.2393,14.5893 13.8972,0 25.9234,-4.9137 36.079,-14.7413 10.1557,-9.8275 15.2334,-22.8462 15.2334,-39.0566 0,-16.2104 -5.0777,-29.2291 -15.2334,-39.0567 -10.1556,-9.8275 -22.1818,-14.7413 -36.079,-14.7413 -13.8971,0 -25.9234,4.9138 -36.079,14.7413 -10.1556,9.8276 -15.2333,22.8463 -15.2333,39.0567 0,16.2104 5.0242,29.2797 15.073,39.2086 z m 205.981,40.1205 c -20.3111,0 -37.8427,-7.5985 -52.5952,-22.7958 -14.7523,-15.1971 -22.1284,-34.0414 -22.1284,-56.5333 0,-22.492 7.3761,-41.3362 22.1284,-56.5335 14.7525,-15.1972 32.2841,-22.7957 52.5952,-22.7957 11.973,0 22.7164,2.4315 32.2306,7.2947 9.5142,4.8631 16.623,10.9418 21.3267,18.2365 h 1.2826 l -1.2826,-20.6681 v -68.6912 h 29.5047 v 217.6233 h -28.2219 v -20.6681 h -1.2828 c -4.7037,7.2946 -11.8125,13.3734 -21.3266,18.2365 -9.5143,4.8631 -20.2577,7.2947 -32.2307,7.2947 z m 4.8105,-25.5312 c 13.8972,0 25.7096,-4.8631 35.4377,-14.5893 9.7279,-9.7262 14.5919,-22.7956 14.5919,-39.2086 0,-16.413 -4.864,-29.4825 -14.5919,-39.2087 -9.7281,-9.7262 -21.5405,-14.5893 -35.4377,-14.5893 -13.6833,0 -25.4423,4.9138 -35.2772,14.7413 -9.8349,9.8276 -14.7523,22.8463 -14.7523,39.0567 0,16.2104 4.9174,29.2291 14.7523,39.0566 9.8349,9.8276 21.5939,14.7413 35.2772,14.7413 z m 180.6456,25.5312 c -23.5182,0 -42.8671,-7.5478 -58.0471,-22.6438 -15.18,-15.0959 -22.7698,-33.9908 -22.7698,-56.6853 0,-22.6945 7.5898,-41.5895 22.7698,-56.6854 15.18,-15.0959 34.5289,-22.6438 58.0471,-22.6438 17.5319,0 32.0703,4.0525 43.6155,12.1577 11.5454,8.1052 19.9905,18.3378 25.3355,30.6983 l -26.939,10.638 c -8.1244,-18.642 -22.7697,-27.9628 -43.9362,-27.9628 -13.0419,0 -24.5337,5.0657 -34.4754,15.1972 -9.9419,10.1314 -14.9126,22.9983 -14.9126,38.6008 0,15.6024 4.9707,28.4692 14.9126,38.6008 9.9417,10.1314 21.4335,15.1971 34.4754,15.1971 22.0216,0 37.2015,-9.3208 45.5397,-27.9628 l 26.2977,10.638 c -5.3451,12.1578 -13.9506,22.3398 -25.8165,30.5463 -11.8661,8.2066 -26.5648,12.3097 -44.0967,12.3097 z m 139.9164,0 c -16.6766,0 -30.627,-4.5591 -41.8516,-13.6774 -11.2246,-9.1184 -16.8369,-21.1747 -16.8369,-36.1693 0,-16.2104 6.6278,-28.9252 19.8835,-38.1448 13.2558,-9.2197 29.6117,-13.8295 49.0676,-13.8295 17.3181,0 31.5358,3.0395 42.6535,9.1184 v -4.2553 c 0,-10.942 -3.9553,-19.7055 -11.8661,-26.291 -7.9107,-6.5854 -17.6386,-9.8782 -29.1839,-9.8782 -8.5521,0 -16.3023,1.925 -23.2509,5.775 -6.9486,3.8499 -11.7057,9.1182 -14.2713,15.805 l -26.939,-10.9419 c 3.6347,-8.9158 10.7969,-17.1728 21.487,-24.7714 10.6901,-7.5987 24.801,-11.3979 42.3329,-11.3979 20.0975,0 36.7737,5.5723 50.0294,16.7169 13.2558,11.1446 19.8839,26.8482 19.8839,47.1112 v 89.9671 h -28.222 v -20.6681 h -1.2816 c -11.759,17.0209 -28.9701,25.5312 -51.6331,25.5312 z m 4.8105,-25.5312 c 12.1867,0 23.2511,-4.3059 33.1929,-12.9176 9.9419,-8.6117 14.9127,-18.7938 14.9127,-30.5463 -8.3383,-6.4842 -20.8455,-9.7262 -37.5223,-9.7262 -14.3247,0 -25.1216,2.9381 -32.3908,8.8144 -7.2695,5.8763 -10.904,12.7656 -10.904,20.6681 0,7.2947 3.3138,13.0696 9.9418,17.3248 6.6278,4.2552 14.2177,6.3828 22.7697,6.3828 z m 162.6867,25.5312 c -17.5321,0 -32.0169,-4.0526 -43.4553,-12.1578 -11.4384,-8.1052 -19.8302,-18.2365 -25.1751,-30.3942 l 26.2974,-10.3341 c 8.3384,18.642 22.5562,27.9628 42.6535,27.9628 9.1935,0 16.7299,-1.925 22.6095,-5.775 5.8797,-3.8499 8.8193,-8.9156 8.8193,-15.1971 0,-9.7263 -7.1622,-16.3116 -21.4872,-19.7563 l -31.7494,-7.2947 c -10.0488,-2.4315 -19.5627,-7.0413 -28.5424,-13.8293 -8.9798,-6.7881 -13.4696,-15.957 -13.4696,-27.5069 0,-13.1709 6.1468,-23.8594 18.4404,-32.066 12.2935,-8.2065 26.8855,-12.3097 43.7759,-12.3097 13.8972,0 26.2977,2.9888 37.2016,8.9664 10.9039,5.9775 18.7074,14.5385 23.4111,25.6831 l -25.6561,10.0302 c -5.7727,-13.171 -17.7454,-19.7564 -35.9186,-19.7564 -8.7658,0 -16.1422,1.7224 -22.1286,5.1671 -5.9864,3.4446 -8.9797,8.1051 -8.9797,13.9814 0,8.5104 6.9485,14.2853 20.8458,17.3247 l 31.108,6.9907 c 14.7525,3.2421 25.6562,8.8143 32.7117,16.7169 7.0555,7.9026 10.5833,16.8181 10.5833,26.7469 0,13.3736 -5.7727,24.5182 -17.318,33.4338 -11.5453,8.9157 -26.4044,13.3735 -44.5775,13.3735 z m 150.1787,-2.4316 c -16.4629,0 -29.0237,-4.1538 -37.6826,-12.4616 -8.6588,-8.3078 -12.9882,-20.0601 -12.9882,-35.2574 v -78.1134 h -27.5805 v -25.5312 h 27.5805 v -45.5915 h 29.5044 v 45.5915 h 38.4844 v 25.5312 h -38.4844 v 75.9858 c 0,16.2104 7.0554,24.3154 21.1664,24.3154 5.3452,0 9.8345,-0.8104 13.4696,-2.4315 l 10.2624,24.0115 c -6.4143,2.6342 -14.3247,3.9512 -23.732,3.9512 z m 103.3563,2.4316 c -17.5316,0 -32.0166,-4.0526 -43.4554,-12.1578 -11.4383,-8.1052 -19.8301,-18.2365 -25.1751,-30.3942 l 26.298,-10.3341 c 8.3383,18.642 22.5557,27.9628 42.653,27.9628 9.194,0 16.73,-1.925 22.6097,-5.775 5.8796,-3.8499 8.8191,-8.9156 8.8191,-15.1971 0,-9.7263 -7.1621,-16.3116 -21.4867,-19.7563 l -31.7496,-7.2947 c -10.0487,-2.4315 -19.5629,-7.0413 -28.5426,-13.8293 -8.9795,-6.7881 -13.4693,-15.957 -13.4693,-27.5069 0,-13.1709 6.1464,-23.8594 18.4403,-32.066 12.2934,-8.2065 26.8853,-12.3097 43.7759,-12.3097 13.8972,0 26.2975,2.9888 37.2015,8.9664 10.9036,5.9775 18.7076,14.5385 23.4111,25.6831 l -25.656,10.0302 c -5.773,-13.171 -17.7455,-19.7564 -35.9188,-19.7564 -8.7659,0 -16.1421,1.7224 -22.1284,5.1671 -5.9865,3.4446 -8.9795,8.1051 -8.9795,13.9814 0,8.5104 6.9484,14.2853 20.8456,17.3247 l 31.1081,6.9907 c 14.7522,3.2421 25.6559,8.8143 32.7115,16.7169 7.0554,7.9026 10.583,16.8181 10.583,26.7469 0,13.3736 -5.7725,24.5182 -17.318,33.4338 -11.5452,8.9157 -26.4041,13.3735 -44.5774,13.3735 z"
         id="Podcasts-1"
         inkscape:export-filename="G:\Users\suitedoalex\sites\google-podcasts-logo-4.png"
         inkscape:export-xdpi="11.098957"
         inkscape:export-ydpi="11.098957" />
      <path
         style="fill:#65696d;fill-opacity:1;fill-rule:nonzero;stroke-width:17.43648338"
         inkscape:connector-curvature="0"
         d="m 791.94315,-1614.895 c 0,-65.0662 54.53801,-117.7923 119.62449,-117.7923 35.90974,0 61.49554,14.135 80.79704,32.5331 l -22.8925,22.661 c -13.6906,-13.0133 -32.31877,-23.1097 -57.90454,-23.1097 -47.35601,0 -84.388,38.1423 -84.388,85.4835 0,47.3414 37.03199,85.4837 84.388,85.4837 30.74773,0 48.25374,-12.3401 59.47554,-23.5584 9.2019,-9.1991 15.2617,-22.4367 17.5061,-40.386 h -76.98164 v -32.0844 h 108.40276 c 1.1221,5.8335 1.7954,12.5645 1.7954,20.1929 0,24.2316 -6.5086,54.0724 -27.83002,75.1628 -20.8726,21.5392 -47.3561,32.9819 -82.36814,32.9819 -65.08648,0 -119.62449,-52.7261 -119.62449,-117.5681 z m 316.23065,-32.5331 c 41.9695,0 76.0838,31.8601 76.0838,75.8359 0,43.7515 -34.1143,75.8359 -76.0838,75.8359 -41.9696,0 -76.0839,-32.0844 -76.0839,-75.8359 0,-43.9758 34.1143,-75.8359 76.0839,-75.8359 z m 0,121.6067 c 22.8925,0 42.8672,-18.8469 42.8672,-45.9952 0,-27.3727 -19.9747,-45.9951 -42.8672,-45.9951 -23.1169,0 -42.8674,18.6224 -42.8674,45.9951 0,27.1483 19.9748,45.9952 42.8674,45.9952 z m 166.0827,-121.6067 c 41.9695,0 76.0839,31.8601 76.0839,75.8359 0,43.7515 -34.1144,75.8359 -76.0839,75.8359 -41.9695,0 -76.0839,-32.0844 -76.0839,-75.8359 0,-43.9758 34.1144,-75.8359 76.0839,-75.8359 z m 0,121.6067 c 22.8926,0 42.8673,-18.8469 42.8673,-45.9952 0,-27.3727 -19.7503,-45.9951 -42.8673,-45.9951 -23.1169,0 -42.8672,18.6224 -42.8672,45.9951 0,27.1483 19.9747,45.9952 42.8672,45.9952 z m 203.7881,-119.1387 h 31.8699 v 136.1905 c 0,56.0916 -32.9921,78.977 -72.044,78.977 -36.8075,0 -59.0267,-24.6803 -67.3309,-44.8733 l 28.9523,-12.1158 c 5.162,12.3402 17.7305,26.924 38.1542,26.924 24.9124,0 40.3985,-15.4813 40.3985,-44.4246 v -10.9939 h -1.1222 c -7.4064,9.199 -21.7703,17.2762 -39.9496,17.2762 -37.9297,0 -72.7174,-33.2062 -72.7174,-75.6116 0,-42.8539 34.7877,-76.0601 72.7174,-76.0601 18.1793,0 32.5432,8.0772 39.9496,17.0518 h 1.1222 z m -38.1542,117.1194 c 22.6681,0 40.623,-19.0712 40.3985,-45.7709 0,-26.6995 -17.7304,-46.2194 -40.3985,-46.2194 -22.8924,0 -42.194,19.5199 -42.194,46.2194 0,26.4753 19.3016,45.7709 42.194,45.7709 z m 92.6922,26.9239 v -222.7959 h 33.2165 v 222.7959 z m 124.562,-24.9046 c 17.0572,0 28.7278,-8.3016 37.4808,-20.8661 l 25.8102,17.2762 c -8.5285,12.3401 -28.5033,33.655 -63.291,33.655 -43.0916,0 -75.1861,-33.4306 -75.1861,-75.8359 0,-45.0977 32.5432,-75.8359 71.5952,-75.8359 39.2763,0 58.5777,31.1869 64.8621,48.2388 l 3.3664,8.5259 -101.4451,41.9566 c 7.8553,15.0326 19.7504,22.8854 36.8075,22.8854 z m -2.4688,-92.4391 c -17.0571,0 -40.6228,15.0326 -39.7252,44.2003 l 67.7798,-28.0459 c -3.591,-9.6477 -14.8129,-16.1544 -28.0546,-16.1544 z"
         id="Combined-Shape-6"
         inkscape:export-filename="G:\Users\suitedoalex\sites\google-podcasts-logo-4.png"
         inkscape:export-xdpi="11.098957"
         inkscape:export-ydpi="11.098957" />
      <path
         style="fill:#65696d;fill-opacity:1;fill-rule:nonzero;stroke-width:21.52590942"
         inkscape:connector-curvature="0"
         d="m 4538.5803,-1433.4888 c 0,-80.3264 67.3289,-145.4185 147.6804,-145.4185 44.3316,0 75.9182,17.4501 99.7465,40.1632 l -28.2615,27.9757 c -16.9015,-16.0653 -39.8986,-28.5296 -71.485,-28.5296 -58.4625,0 -104.1798,47.0879 -104.1798,105.5321 0,58.4446 45.7173,105.5325 104.1798,105.5325 37.959,0 59.5708,-15.2343 73.4244,-29.0837 11.3601,-11.3565 18.8411,-27.6988 21.6119,-49.8578 h -95.0363 v -39.6092 h 133.8266 c 1.3853,7.2016 2.2165,15.5112 2.2165,24.9287 0,29.9147 -8.035,66.7542 -34.357,92.791 -25.7679,26.5908 -58.4627,40.7172 -101.6861,40.7172 -80.3515,0 -147.6804,-65.0921 -147.6804,-145.1416 z m 390.3971,-40.1632 c 51.8128,0 93.9279,39.3323 93.9279,93.6218 0,54.0127 -42.1151,93.622 -93.9279,93.622 -51.8129,0 -93.9282,-39.6093 -93.9282,-93.622 0,-54.2895 42.1153,-93.6218 93.9282,-93.6218 z m 0,150.1274 c 28.2615,0 52.9209,-23.2671 52.9209,-56.7825 0,-33.7925 -24.6594,-56.7825 -52.9209,-56.7825 -28.5385,0 -52.9213,22.99 -52.9213,56.7825 0,33.5154 24.6595,56.7825 52.9213,56.7825 z m 205.0345,-150.1274 c 51.8128,0 93.9281,39.3323 93.9281,93.6218 0,54.0127 -42.1153,93.622 -93.9281,93.622 -51.8127,0 -93.928,-39.6093 -93.928,-93.622 0,-54.2895 42.1153,-93.6218 93.928,-93.6218 z m 0,150.1274 c 28.2618,0 52.9212,-23.2671 52.9212,-56.7825 0,-33.7925 -24.3825,-56.7825 -52.9212,-56.7825 -28.5385,0 -52.9211,22.99 -52.9211,56.7825 0,33.5154 24.6596,56.7825 52.9211,56.7825 z m 251.5832,-147.0806 h 39.3444 v 168.1316 c 0,69.247 -40.7299,97.4997 -88.9407,97.4997 -45.4401,0 -72.8704,-30.4687 -83.1222,-55.3975 l 35.7425,-14.9574 c 6.3728,15.2344 21.889,33.2385 47.1026,33.2385 30.7552,0 49.8734,-19.1121 49.8734,-54.8436 v -13.5722 h -1.3855 c -9.1434,11.3564 -26.8762,21.3279 -49.3191,21.3279 -46.8254,0 -89.772,-40.9941 -89.772,-93.345 0,-52.9045 42.9466,-93.8986 89.772,-93.8986 22.4429,0 40.1757,9.9715 49.3191,21.051 h 1.3855 z m -47.1027,144.5877 c 27.9845,0 50.1504,-23.544 49.8732,-56.5057 0,-32.9614 -21.8887,-57.0593 -49.8732,-57.0593 -28.2614,0 -52.0898,24.0979 -52.0898,57.0593 0,32.6846 23.8284,56.5057 52.0898,56.5057 z m 114.4316,33.2384 v -275.0487 h 41.0068 v 275.0487 z m 153.7758,-30.7455 c 21.0577,0 35.4653,-10.2486 46.2711,-25.7598 l 31.8637,21.3279 c -10.5287,15.2343 -35.1882,41.5483 -78.1348,41.5483 -53.198,0 -92.8197,-41.2712 -92.8197,-93.622 0,-55.6745 40.1756,-93.6218 88.3867,-93.6218 48.4878,0 72.3161,38.5012 80.0743,59.5524 l 4.156,10.5254 -125.2374,51.7969 c 9.6977,18.5582 24.3826,28.2527 45.4401,28.2527 z m -3.0478,-114.1191 c -21.0576,0 -50.1502,18.5583 -49.0422,54.5667 l 83.6765,-34.6236 c -4.4332,-11.9104 -18.287,-19.9431 -34.6343,-19.9431 z"
         id="Combined-Shape-6-4"
         inkscape:export-filename="G:\Users\suitedoalex\sites\google-podcasts-logo-7.png"
         inkscape:export-xdpi="71.254539"
         inkscape:export-ydpi="71.254539" />
      <path
         style="fill:#6a6c6f;fill-opacity:1;fill-rule:nonzero;stroke-width:18.32786369"
         inkscape:connector-curvature="0"
         d="M 4555.7059,-996.81422 H 4527.174 V -1207.263 h 75.6716 c 18.8145,0 35.0963,5.9274 48.8455,17.7824 13.7491,11.8549 20.6235,26.7959 20.6235,44.8232 0,18.0274 -6.8744,32.9683 -20.6235,44.8232 -13.7492,11.855 -30.031,17.7824 -48.8455,17.7824 h -47.1397 z m 0,-111.10268 h 47.7599 c 11.9917,0 21.6057,-3.8211 28.8421,-11.4631 7.2364,-7.642 10.8545,-16.0678 10.8545,-25.2774 0,-9.2096 -3.6181,-17.6353 -10.8545,-25.2774 -7.2364,-7.6419 -16.8504,-11.4629 -28.8421,-11.4629 h -47.7599 z m 140.2657,-15.5781 c 14.6796,-14.6961 33.3906,-22.0441 56.1335,-22.0441 22.743,0 41.454,7.299 56.1334,21.8972 14.6796,14.5983 22.0193,32.8704 22.0193,54.8167 0,21.9463 -7.3397,40.2183 -22.0193,54.8165 -14.6794,14.59828 -33.3904,21.89728 -56.1334,21.89728 -22.7429,0 -41.4539,-7.299 -56.1335,-21.89728 -14.6795,-14.5982 -22.0192,-32.8702 -22.0192,-54.8165 0,-21.9463 7.3397,-40.1694 22.0192,-54.6698 z m 21.0889,92.5858 c 9.9242,9.4055 21.6057,14.1083 35.0446,14.1083 13.4391,0 25.0688,-4.7517 34.8896,-14.2553 9.8209,-9.5035 14.7312,-22.093 14.7312,-37.769 0,-15.676 -4.9103,-28.2655 -14.7312,-37.7691 -9.8208,-9.5035 -21.4505,-14.2553 -34.8896,-14.2553 -13.4389,0 -25.0688,4.7518 -34.8896,14.2553 -9.8208,9.5036 -14.7311,22.0931 -14.7311,37.7691 0,15.676 4.8586,28.3144 14.5761,37.916 z m 199.1904,38.79778 c -19.6415,0 -36.5952,-7.348 -50.8613,-22.04428 -14.266,-14.6961 -21.3989,-32.9191 -21.3989,-54.6695 0,-21.7505 7.1329,-39.9735 21.3989,-54.6698 14.2661,-14.6961 31.2198,-22.0441 50.8613,-22.0441 11.5783,0 21.9675,2.3513 31.168,7.0542 9.2006,4.7027 16.075,10.581 20.6236,17.6353 h 1.2403 l -1.2403,-19.9868 v -66.4266 h 28.532 v 210.44878 h -27.2915 v -19.98668 h -1.2405 c -4.5486,7.0541 -11.423,12.9325 -20.6235,17.63528 -9.2006,4.7028 -19.5898,7.0542 -31.1681,7.0542 z m 4.6519,-24.68948 c 13.439,0 24.862,-4.7028 34.2694,-14.1083 9.4072,-9.4056 14.1108,-22.0441 14.1108,-37.916 0,-15.8719 -4.7036,-28.5106 -14.1108,-37.9161 -9.4074,-9.4056 -20.8304,-14.1083 -34.2694,-14.1083 -13.2322,0 -24.6036,4.7518 -34.1142,14.2553 -9.5107,9.5036 -14.266,22.0931 -14.266,37.7691 0,15.676 4.7553,28.2655 14.266,37.769 9.5106,9.5036 20.882,14.2553 34.1142,14.2553 z m 174.6902,24.68948 c -22.7429,0 -41.4539,-7.299 -56.1335,-21.89728 -14.6795,-14.5982 -22.0191,-32.8702 -22.0191,-54.8165 0,-21.9463 7.3396,-40.2184 22.0191,-54.8167 14.6796,-14.5982 33.3906,-21.8972 56.1335,-21.8972 16.9539,0 31.013,3.9189 42.1776,11.7568 11.1648,7.838 19.3314,17.7333 24.5002,29.6863 l -26.0509,10.2873 c -7.8565,-18.0274 -22.019,-27.0409 -42.4877,-27.0409 -12.6119,0 -23.7249,4.8987 -33.3388,14.6961 -9.6142,9.7974 -14.421,22.2402 -14.421,37.3283 0,15.088 4.8068,27.5306 14.421,37.3282 9.6139,9.7974 20.7269,14.6961 33.3388,14.6961 21.2956,0 35.9751,-9.0135 44.0384,-27.0409 l 25.4307,10.2873 c -5.1689,11.7569 -13.4907,21.6033 -24.9654,29.5392 -11.4749,7.93608 -25.689,11.90388 -42.6429,11.90388 z m 135.3037,0 c -16.1268,0 -29.6173,-4.4088 -40.4719,-13.22648 -10.8545,-8.8178 -16.2818,-20.4766 -16.2818,-34.9769 0,-15.676 6.4093,-27.9716 19.228,-36.8872 12.8188,-8.9158 28.6355,-13.3736 47.45,-13.3736 16.7471,0 30.4961,2.9393 41.2473,8.8178 v -4.115 c 0,-10.5813 -3.8249,-19.0559 -11.4749,-25.4243 -7.6499,-6.3683 -17.0571,-9.5525 -28.2218,-9.5525 -8.2702,0 -15.7649,1.8615 -22.4844,5.5846 -6.7195,3.7229 -11.3198,8.8176 -13.8008,15.2839 l -26.0509,-10.5812 c 3.5149,-8.6218 10.441,-16.6066 20.7786,-23.9547 10.3377,-7.3482 23.9834,-11.0221 40.9373,-11.0221 19.435,0 35.5614,5.3886 48.3801,16.1657 12.8188,10.7772 19.2284,25.9631 19.2284,45.5581 v 87.00108 h -27.2916 v -19.98668 h -1.2394 c -11.3713,16.4598 -28.015,24.68948 -49.9309,24.68948 z m 4.6519,-24.68948 c 11.7849,0 22.4846,-4.1639 32.0986,-12.4917 9.6142,-8.3278 14.4211,-18.1743 14.4211,-29.5393 -8.0634,-6.2704 -20.1583,-9.4056 -36.2853,-9.4056 -13.8525,0 -24.2934,2.8413 -31.323,8.5239 -7.0298,5.6825 -10.5445,12.3447 -10.5445,19.9867 0,7.0542 3.2046,12.6387 9.6141,16.7536 6.4093,4.1149 13.7489,6.1724 22.019,6.1724 z m 157.3233,24.68948 c -16.9541,0 -30.9613,-3.919 -42.0226,-11.75698 -11.0614,-7.838 -19.1765,-17.6353 -24.3452,-29.3922 l 25.4305,-9.9934 c 8.0635,18.0274 21.8125,27.041 41.2473,27.041 8.8904,0 16.1783,-1.8616 21.8641,-5.5847 5.6859,-3.7229 8.5286,-8.6216 8.5286,-14.696 0,-9.4057 -6.9261,-15.7739 -20.7789,-19.105 l -30.7027,-7.0542 c -9.7175,-2.3514 -18.9177,-6.8092 -27.6014,-13.3734 -8.6838,-6.5643 -13.0256,-15.431 -13.0256,-26.6001 0,-12.7367 5.9442,-23.0728 17.8325,-31.0089 11.8882,-7.9359 25.9992,-11.9038 42.3327,-11.9038 13.4391,0 25.4308,2.8902 35.9752,8.6708 10.5444,5.7804 18.0907,14.0592 22.6393,24.8364 l -24.8103,9.6995 c -5.5824,-12.7368 -17.1604,-19.1051 -34.7344,-19.1051 -8.4769,0 -15.6101,1.6656 -21.3991,4.9968 -5.7891,3.331 -8.6837,7.8378 -8.6837,13.5204 0,8.2299 6.7194,13.8144 20.1586,16.7536 l 30.0824,6.7602 c 14.2662,3.1352 24.8104,8.5237 31.6333,16.1658 6.8229,7.6421 10.2344,16.2636 10.2344,25.8651 0,12.9327 -5.5824,23.7099 -16.7471,32.3316 -11.1646,8.62178 -25.5339,12.93258 -43.1079,12.93258 z m 145.2277,-2.3514 c -15.9201,0 -28.0668,-4.0169 -36.4403,-12.05078 -8.3733,-8.0339 -12.56,-19.3988 -12.56,-34.0951 v -75.5382 h -26.6711 v -24.6895 h 26.6711 v -44.0884 h 28.5317 v 44.0884 h 37.2157 v 24.6895 h -37.2157 v 73.4808 c 0,15.676 6.8228,23.5138 20.4686,23.5138 5.169,0 9.5103,-0.7837 13.0256,-2.3514 l 9.9241,23.21988 c -6.2029,2.5474 -13.8525,3.821 -22.9497,3.821 z m 99.949,2.3514 c -16.9537,0 -30.9611,-3.919 -42.0228,-11.75698 -11.0612,-7.838 -19.1764,-17.6353 -24.3452,-29.3922 l 25.431,-9.9934 c 8.0635,18.0274 21.8121,27.041 41.2469,27.041 8.8909,0 16.1784,-1.8616 21.8643,-5.5847 5.6858,-3.7229 8.5285,-8.6216 8.5285,-14.696 0,-9.4057 -6.9261,-15.7739 -20.7785,-19.105 l -30.7029,-7.0542 c -9.7174,-2.3514 -18.9179,-6.8092 -27.6016,-13.3734 -8.6835,-6.5643 -13.0252,-15.431 -13.0252,-26.6001 0,-12.7367 5.9438,-23.0728 17.8323,-31.0089 11.8881,-7.9359 25.999,-11.9038 42.3327,-11.9038 13.4392,0 25.4306,2.8902 35.9751,8.6708 10.5441,5.7804 18.0909,14.0592 22.6393,24.8364 l -24.8102,9.6995 c -5.5827,-12.7368 -17.1605,-19.1051 -34.7346,-19.1051 -8.4769,0 -15.61,1.6656 -21.3989,4.9968 -5.7891,3.331 -8.6834,7.8378 -8.6834,13.5204 0,8.2299 6.7192,13.8144 20.1583,16.7536 l 30.0825,6.7602 c 14.2659,3.1352 24.8101,8.5237 31.6331,16.1658 6.8229,7.6421 10.2341,16.2636 10.2341,25.8651 0,12.9327 -5.5822,23.7099 -16.747,32.3316 -11.1645,8.62178 -25.5337,12.93258 -43.1078,12.93258 z"
         id="Podcasts-1-6"
         inkscape:export-filename="G:\Users\suitedoalex\sites\google-podcasts-logo-7.png"
         inkscape:export-xdpi="71.254539"
         inkscape:export-ydpi="71.254539" />
    </g>
    <g
       id="Podcast_icon_final-3-3"
       transform="matrix(34.566718,0,0,34.566718,6248.4965,-3091.1112)"
       inkscape:export-filename="G:\Users\suitedoalex\sites\google-podcasts-logo-7.png"
       inkscape:export-xdpi="71.254539"
       inkscape:export-ydpi="71.254539">
      <g
         id="_logo_Podcasts_192px-8-8">
        <polygon
           style="fill:#fab908"
           id="Shape-8-0"
           points="12.742925,15.440625 12.742925,19.852941 16.383761,19.852941 16.383761,15.440625 16.383761,13.677022 16.383761,9.2647059 12.742925,9.2647059 12.742925,13.677022 " />
        <ellipse
           style="fill:#0066d9"
           id="Oval-0-6"
           cx="1.8204179"
           cy="13.566176"
           rx="1.8204179"
           ry="1.8198529" />
        <ellipse
           style="fill:#0066d9"
           id="ellipse9-9-0"
           cx="1.8204179"
           cy="15.551471"
           rx="1.8204179"
           ry="1.8198529" />
        <rect
           style="fill:#0066d9"
           id="Rectangle-path-8-8"
           x="0"
           y="13.566176"
           width="3.6408358"
           height="1.9852941" />
        <ellipse
           style="fill:#4285f4"
           id="ellipse12-0-7"
           cx="27.306269"
           cy="15.551471"
           rx="1.8204179"
           ry="1.8198529" />
        <ellipse
           style="fill:#4285f4"
           id="ellipse14-0-7"
           cx="27.306269"
           cy="13.566176"
           rx="1.8204179"
           ry="1.8198529" />
        <rect
           style="fill:#4285f4"
           id="rect16-5-6"
           transform="rotate(180,27.306269,14.558824)"
           x="25.485851"
           y="13.566176"
           width="3.6408358"
           height="1.9852941" />
        <ellipse
           style="fill:#ea4335"
           id="ellipse18-2-4"
           cx="8.1091347"
           cy="19.522058"
           rx="1.8204179"
           ry="1.8198529" />
        <ellipse
           style="fill:#ea4335"
           id="ellipse20-8-2"
           cx="8.1091347"
           cy="21.507353"
           rx="1.8204179"
           ry="1.8198529" />
        <rect
           style="fill:#ea4335"
           id="rect22-6-8"
           x="6.2887163"
           y="19.522058"
           width="3.6408358"
           height="1.9852941" />
        <ellipse
           style="fill:#ea4335"
           id="ellipse24-4-8"
           cx="8.1091347"
           cy="7.6102943"
           rx="1.8204179"
           ry="1.8198529" />
        <ellipse
           style="fill:#ea4335"
           id="ellipse26-3-3"
           cx="8.1091347"
           cy="14.0625"
           rx="1.8204179"
           ry="1.8198529" />
        <rect
           style="fill:#ea4335"
           id="rect28-2-7"
           x="6.2887163"
           y="7.6102943"
           width="3.6408358"
           height="6.493566" />
        <ellipse
           style="fill:#34a853"
           id="ellipse30-7-4"
           cx="21.017551"
           cy="9.5955887"
           rx="1.8204179"
           ry="1.8198529" />
        <ellipse
           style="fill:#34a853"
           id="ellipse32-9-8"
           cx="21.017551"
           cy="7.6102943"
           rx="1.8204179"
           ry="1.8198529" />
        <rect
           style="fill:#34a853"
           id="rect34-0-0"
           transform="rotate(180,21.017552,8.602941)"
           x="19.197134"
           y="7.6102943"
           width="3.6408358"
           height="1.9852941" />
        <ellipse
           style="fill:#fab908"
           id="ellipse36-4-8"
           cx="14.563343"
           cy="3.8051472"
           rx="1.8204179"
           ry="1.8198529" />
        <ellipse
           style="fill:#fab908"
           id="ellipse38-1-4"
           cx="14.563343"
           cy="1.8198529"
           rx="1.8204179"
           ry="1.8198529" />
        <rect
           style="fill:#fab908"
           id="rect40-9-5"
           transform="rotate(180,14.563343,2.8125)"
           x="12.742926"
           y="1.8198529"
           width="3.6408358"
           height="1.9852941" />
        <ellipse
           style="fill:#fab908"
           id="ellipse42-1-4"
           cx="14.563343"
           cy="27.297794"
           rx="1.8204179"
           ry="1.8198529" />
        <ellipse
           style="fill:#fab908"
           id="ellipse44-5-0"
           cx="14.563343"
           cy="25.3125"
           rx="1.8204179"
           ry="1.8198529" />
        <rect
           style="fill:#fab908"
           id="rect46-3-8"
           transform="rotate(180,14.563343,26.305147)"
           x="12.742926"
           y="25.3125"
           width="3.6408358"
           height="1.9852941" />
        <ellipse
           style="fill:#34a853"
           id="ellipse48-2-1"
           cx="21.017551"
           cy="21.507353"
           rx="1.8204179"
           ry="1.8198529" />
        <ellipse
           style="fill:#34a853"
           id="ellipse50-8-8"
           cx="21.017551"
           cy="15.055147"
           rx="1.8204179"
           ry="1.8198529" />
        <rect
           style="fill:#34a853"
           id="rect52-3-8"
           transform="rotate(180,21.017552,18.28125)"
           x="19.197134"
           y="15.055147"
           width="3.6408358"
           height="6.4522057" />
        <ellipse
           style="fill:#fab908"
           id="ellipse54-7-8"
           cx="14.563343"
           cy="9.2647057"
           rx="1.8204179"
           ry="1.8198529" />
        <ellipse
           style="fill:#fab908"
           id="ellipse56-5-8"
           cx="14.563343"
           cy="19.852942"
           rx="1.8204179"
           ry="1.8198529" />
      </g>
    </g>
  </g>
</svg>
