<svg xmlns="http://www.w3.org/2000/svg" width="248" height="110" viewBox="0 0 248 110">
  <g fill="none" fill-rule="evenodd">
    <path fill="#FFF" d="M227.867708,88.1912535 C188.847365,82.4308271 149.827023,93.95168 110.806681,88.1912535 L110.806681,30.5855887 C149.827023,36.3460152 188.847365,24.8251623 227.867708,30.5855887 L227.867708,88.1912535 Z"/>
    <path fill="#E7E7E7" d="M120.850043,79.2684734 C120.850043,79.2684734 120.278734,82.8942936 110.807031,88.1912535 L110.807031,58.2395563 L120.850043,79.2684734 Z"/>
    <path fill="#FFF" d="M120.851372,79.2684734 C87.2343412,73.5080469 53.6173105,85.0288998 20.0002797,79.2684734 L20.0002797,21.6628086 C53.6173105,27.423235 87.2343412,15.9023821 120.851372,21.6628086 L120.851372,79.2684734 Z"/>
    <path fill="#CE262F" d="M127.547087 58.5347187C127.966653 58.550821 128.386219 58.5662232 128.805785 58.5795251 130.365871 58.6285321 130.519013 57.6679943 130.517614 56.5100282L130.517614 50.2588313C130.518314 48.8964358 130.36727 48.0409131 128.805785 47.9933063 128.386219 47.9793042 127.966653 47.9646021 127.547087 47.9477997L127.547087 58.5347187zM127.547087 64.6339937L127.547087 79.6567491C125.314995 79.5699366 123.082205 79.4418182 120.850113 79.2674932L120.850113 41.7617122C124.022033 42.0095478 127.194651 42.1628698 130.366571 42.2398808 136.055886 42.3511968 137.264237 45.0514842 137.265635 49.7057519L137.265635 57.2171296C137.264237 61.8440935 135.402762 64.8237209 130.719006 64.7320078 129.6617 64.7082044 128.604393 64.6759998 127.547087 64.6339937L127.547087 64.6339937zM139.078021 42.2752359C141.377243 42.2416311 143.676465 42.1765217 145.975687 42.0883091L145.975687 71.1256751C145.976386 72.6875992 146.529514 73.4241049 147.637867 73.376498 148.694475 73.3302914 149.2497 72.5461789 149.249001 70.9835547L149.249001 41.9468888C151.548223 41.836973 153.848144 41.7067543 156.147366 41.5625336L156.147366 70.3478635C156.147366 76.5948598 153.226487 79.8223228 148.393086 80.0477552 147.839259 80.0722587 147.285432 80.0967622 146.730905 80.1191654 141.846457 80.3158936 139.077321 77.3068619 139.078021 71.0605658L139.078021 42.2752359M164.651411 61.701553L164.651411 72.539808C165.272368 72.4950016 165.893326 72.449495 166.514284 72.4039885 167.672286 72.3192764 168.226113 71.975527 168.226113 69.8080161L168.226113 63.7080409C168.227512 62.1440165 167.82333 61.4698198 166.262544 61.5839361 165.7255 61.6238419 165.188455 61.6623474 164.651411 61.701553M164.651411 46.7292049L164.651411 55.6519851C165.15489 55.6155798 165.658369 55.5791746 166.161848 55.5420693 167.318452 55.4573571 167.973675 54.954685 167.975073 53.191132L167.975073 48.5025593C167.974374 47.1415641 167.521942 46.5198749 166.262544 46.6122881 165.7255 46.6514937 165.188455 46.6906994 164.651411 46.7292049M157.954437 41.446947C161.327748 41.2264154 164.701759 40.9806801 168.07507 40.7314444 172.557434 40.3995968 174.570651 41.9685219 174.570651 46.960238L174.570651 51.9512541C174.573449 55.0260953 172.758825 56.9212672 171.398033 57.4253395 173.311953 57.8390989 175.124479 59.0187681 175.124479 63.0520468L175.124479 69.3032436C175.125877 75.2015899 173.061612 77.8689726 168.981332 78.171416 165.305934 78.4423548 161.629836 78.7125936 157.954437 78.9534282L157.954437 41.446947M183.634327 39.6461487L183.634327 70.3973606C186.001379 70.25384 188.367732 70.1257216 190.734084 70.0214067L190.734084 76.7766759C186.134941 76.979705 181.536497 77.2709468 176.937354 77.5936931L176.937354 40.087212C179.169445 39.9303895 181.402236 39.7812681 183.634327 39.6461487M211.178769 60.0995832C213.394077 60.1870957 215.609386 60.3138139 217.824695 60.4867387L217.824695 68.9558538C217.823996 73.4119931 215.961822 77.4207683 210.070415 77.1995365 209.617983 77.1841343 209.164852 77.1708324 208.71172 77.1589307 202.266486 77.0231112 200.805697 72.937325 200.805697 68.225649L200.805697 47.0532114C200.806397 42.5333629 202.821013 38.4629789 208.71172 38.5938977 209.164852 38.6057994 209.617983 38.6191013 210.070415 38.6345035 216.51495 38.8851395 217.824695 43.0703399 217.824695 47.3297511L217.824695 53.6313552C215.609386 53.4584303 213.394077 53.3310121 211.178769 53.2441996L211.178769 47.1939316C211.178769 45.7839293 210.726337 45.0061177 209.466939 44.9669121 208.207542 44.9305068 207.805458 45.6313074 207.804758 47.0910168L207.804758 68.2641546C207.805458 69.7777717 208.357187 70.5429815 209.516588 70.5772864 210.725637 70.615792 211.180167 69.7294648 211.178769 68.3670693L211.178769 60.0995832zM198.99471 76.5177787C196.846532 76.5541839 194.697655 76.617193 192.549476 76.701205L192.549476 47.6946434C194.697655 47.6113315 196.846532 47.5483224 198.99471 47.5119172L198.99471 76.5177787zM199.316517 42.1011909C199.316517 44.0614721 197.729858 45.6731034 195.771884 45.7291114 193.813209 45.7851194 192.228648 44.2631011 192.227949 42.3021197 192.227949 40.3432387 193.813909 38.6882012 195.771884 38.6314931 197.729159 38.574785 199.317217 40.1416098 199.316517 42.1011909M36.7401261 48.5852412C37.1764748 48.597843 37.6128235 48.6083445 38.0491722 48.6174458 39.4092655 48.6433495 39.9120455 48.1392772 39.9120455 46.3757242L39.9120455 41.2845937C39.9113462 39.6701621 39.6099579 39.1681901 38.2505639 39.1443867 37.7470846 39.1345853 37.2436054 39.1226836 36.7401261 39.1079815L36.7401261 48.5852412zM36.7401261 70.8169308C34.5080347 70.7518215 32.275244 70.6363049 30.0431526 70.4598796L30.0431526 32.9533985C33.5682067 33.2327385 37.0925616 33.3594567 40.6176157 33.3741588 44.6957978 33.3811598 46.7593635 35.5038644 46.7600627 39.544144L46.7600627 45.5433047C46.7593635 48.6699533 45.0482332 50.0792555 43.7895351 50.6491373 44.8482401 51.0397933 46.6593669 52.2530674 46.6600662 55.024065L46.6600662 67.7777948C46.6586676 69.3908262 46.9614544 70.0874261 47.2131941 70.5340902L47.2131941 70.7861264C44.9811027 70.8554363 42.7490113 70.8904414 40.5162206 70.8799398 40.1637851 70.4745817 39.9106469 69.6659657 39.9120455 68.002527L39.9120455 57.0634576C39.9127448 55.2971041 39.5092621 54.8455394 38.149868 54.8203357 37.6799541 54.8112344 37.2100401 54.8000328 36.7401261 54.7860308L36.7401261 70.8169308zM54.8671977 57.6705847C55.7734604 57.6152767 56.6797231 57.5557682 57.5859858 57.4934593 57.1160718 53.2410492 56.6461578 48.9872389 56.1762438 44.7334286 55.7398951 49.0467474 55.3035464 53.3593661 54.8671977 57.6705847M58.2405088 63.9000784C56.8978974 63.9952921 55.5545868 64.0835047 54.2119754 64.1626161 54.0105837 66.2748191 53.809192 68.3870222 53.6078003 70.4992252 51.6274485 70.6126415 49.6470968 70.7057549 47.666745 70.7715643 49.2443133 58.216663 50.8218817 45.6449593 52.4001493 33.0592536 55.0518068 32.9192335 57.7034643 32.7407079 60.355821 32.5404792 62.0508678 44.9154547 63.7459147 57.2806287 65.4409616 69.6416022 63.2753014 69.821528 61.1103406 69.9944528 58.9453798 70.1512753 58.7104228 68.0677764 58.4754658 65.9842775 58.2405088 63.9000784M73.0448271 62.7438625C73.4811758 62.7067572 73.9175245 62.6696519 74.3538732 62.6332467 75.9167567 62.5023279 76.3181416 61.6636076 76.3181416 59.8482471L76.3181416 39.6839541C76.3195401 37.8692937 75.8125645 37.2041983 74.5552649 37.3099135 74.0517856 37.3519195 73.5483063 37.3946256 73.0448271 37.4373318L73.0448271 62.7438625zM66.3478536 32.0598603C69.5197729 31.793122 72.6923916 31.514482 75.864311 31.2519443 80.8998029 30.8360847 83.1661588 33.012697 83.1661588 38.7059138 83.1654596 45.7636264 83.1654596 52.8213389 83.1661588 59.8790515 83.1661588 65.276826 81.3025863 68.3103612 75.864311 68.7584255 72.6923916 69.020263 69.5197729 69.2996031 66.3478536 69.5656413L66.3478536 32.0598603zM103.808529 38.6758095C103.809228 37.0123708 103.203655 36.1869524 102.046352 36.1687498 100.686958 36.149147 100.233127 36.9584631 100.233826 38.6212016 100.233127 45.4772853 100.233127 52.3326688 100.233826 59.1887525 100.233127 60.3502191 100.686958 61.4052705 102.096699 61.4255734 103.455394 61.4479766 103.809928 60.4041269 103.808529 59.2433603L103.808529 38.6758095 103.808529 38.6758095zM110.808289 59.4078839C110.80759 64.9141739 107.886711 68.2543531 102.851918 68.1437373 102.348439 68.1332358 101.84496 68.1255347 101.341481 68.1199339 96.0528505 68.0779278 93.2347651 65.0065872 93.2347651 59.0942389L93.2347651 39.2827965C93.2361637 33.5048676 95.5011211 29.5710032 101.291133 29.6053081 101.794612 29.6102088 102.29879 29.6179099 102.80227 29.6284114 108.692977 29.7740323 110.808289 33.8220131 110.808289 39.5460343L110.808289 59.4078839zM91.4228691 67.7315881C89.2746909 67.8198008 87.1258135 67.9374177 84.9776353 68.0760376L84.9776353 39.0694759C87.1258135 38.9315561 89.2746909 38.8139393 91.4228691 38.7257266L91.4228691 67.7315881zM91.7446763 33.3073692C91.743977 35.2662503 90.1566188 36.916387 88.2000424 37.0228023 86.2434661 37.1278174 84.6547093 35.6457047 84.6554085 33.6854235 84.6554085 31.7258423 86.2427668 30.0301991 88.2000424 29.925184 90.1587166 29.8194688 91.7432777 31.347088 91.7446763 33.3073692"/>
  </g>
</svg>
